<?xml version="1.0" encoding="iso-8859-1"?>
<!-- Generator: Adobe Illustrator 16.0.0, SVG Export Plug-In . SVG Version: 6.00 Build 0)  -->
<!DOCTYPE svg PUBLIC "-//W3C//DTD SVG 1.1//EN" "http://www.w3.org/Graphics/SVG/1.1/DTD/svg11.dtd">
<svg version="1.1" id="Capa_1" xmlns="http://www.w3.org/2000/svg" xmlns:xlink="http://www.w3.org/1999/xlink" x="0px" y="0px"
	 width="612px" height="612px" viewBox="0 0 612 612" style="enable-background:new 0 0 612 612;" xml:space="preserve">
<g>
	<g>
		<path d="M573.396,205.691H397.199L343.443,40.333C338.61,23.693,323.261,12.099,306,12.099c-17.379,0-32.813,11.751-37.37,27.992
			l-53.61,165.601H38.847C17.424,205.691,0,223.612,0,245.632c0,12.801,6.231,24.817,16.844,32.255
			c3.75,2.605,83.739,60.979,141.934,103.498c-22.139,67.95-52.567,161.247-53.999,165.317l-0.316,0.869
			c-1.478,4.482-2.233,8.888-2.233,13.11c0,21.625,17.531,39.219,39.095,39.219c7.912,0,15.62-2.407,22.613-7.218L305.995,489.27
			c32.627,23.763,139.244,101.411,142.373,103.633c6.644,4.579,14.346,6.998,22.286,6.998c21.558,0,39.101-17.594,39.101-39.219
			c0-4.258-0.756-8.695-2.391-13.584c-1.54-4.343-32.002-97.713-54.151-165.719c58.149-42.484,138.093-100.837,142.091-103.605
			c10.448-7.33,16.696-19.398,16.696-32.277C612,223.561,594.677,205.691,573.396,205.691z M577.625,252.033
			c-3.818,2.571-127.267,92.756-151.982,110.812l-9.141,6.677l3.507,10.771c20.453,62.802,54.396,166.937,57.879,177.12h-0.006
			c0.542,1.606,0.648,2.668,0.648,3.276c0,4.324-3.608,7.979-7.872,7.979c-1.606,0-3.129-0.496-4.358-1.343
			c-2.842-2.019-100.087-72.845-151.103-110l-9.197-6.7L145.915,567.185c-1.449,0.992-2.983,1.488-4.584,1.488
			c-4.331,0-7.855-3.581-7.855-7.979c0-0.607,0.124-1.69,0.654-3.338v-0.006c3.457-10.11,33.039-100.831,57.856-177.053
			l3.513-10.771l-9.146-6.683c-24.71-18.057-148.159-108.229-151.717-110.637c-2.126-1.489-3.389-3.947-3.389-6.581
			c0-4.635,3.547-8.701,7.607-8.701H237.74l60.789-187.795c0.807-2.887,3.429-5.791,7.466-5.791c4.032,0,6.66,2.904,7.461,5.78
			l61.042,187.818h198.887c3.998,0,7.37,3.93,7.37,8.577C580.76,248.215,579.497,250.719,577.625,252.033z"/>
	</g>
</g>
<g>
</g>
<g>
</g>
<g>
</g>
<g>
</g>
<g>
</g>
<g>
</g>
<g>
</g>
<g>
</g>
<g>
</g>
<g>
</g>
<g>
</g>
<g>
</g>
<g>
</g>
<g>
</g>
<g>
</g>
</svg>
